<?xml version="1.0" encoding="UTF-8"?>
<!-- Created with Inkscape (http://www.inkscape.org/) -->
<svg width="26.307mm" height="15.557mm" version="1.1" viewBox="0 0 26.307 15.557" xml:space="preserve" xmlns="http://www.w3.org/2000/svg"><g transform="translate(-70.443 -14.157)"><g transform="matrix(2.4417 0 0 2.4417 -70.722 -27.329)"><g transform="matrix(1 0 0 1.046 0 -1.9335)"><g fill="#fff"><g stroke-width=".034066" aria-label="C"><path d="m63.45 22.241v1.2623q-1.0843 0.57526-2.2721 0.57526-1.5395 0-2.4542-0.8484-0.91048-0.85254-0.91048-2.0982 0-1.2457 0.96014-2.1148 0.96428-0.8691 2.5162-0.8691 1.2374 0 2.0941 0.50904v1.2871q-1.0512-0.59181-1.9906-0.59181-0.9229 0-1.5106 0.49663-0.58354 0.49249-0.58354 1.2581 0 0.76977 0.57526 1.2705 0.5794 0.50076 1.4816 0.50076 0.44696 0 0.86082-0.11588 0.41386-0.12002 1.2333-0.52146z"/></g><g transform="matrix(.88926 -.483 .50523 .85012 0 0)" stroke-width=".10595" aria-label="&amp;"><path d="m44.43 51.266-0.26818-0.31453q-0.03476 0.03476-0.11919 0.10098l-0.0033 0.0033q-0.11754 0.09767-0.29135 0.1672-0.17216 0.06953-0.32446 0.06953-0.24004 0-0.40723-0.15561-0.1672-0.15726-0.1672-0.3824 0-0.16223 0.08112-0.29301 0.08277-0.13078 0.26818-0.26652l5e-3 -5e-3q0.10926-0.08112 0.18872-0.12416-0.26156-0.27977-0.26156-0.53636 0-0.23672 0.16058-0.38406 0.16058-0.14733 0.41717-0.14733 0.25162 0 0.41386 0.14402 0.16223 0.14402 0.16223 0.3675 0 0.30294-0.40392 0.58933l-0.02318 0.01821 0.32446 0.37247q0.14237-0.15561 0.24831-0.37247h0.33108q-0.11919 0.30791-0.37578 0.60588l0.46848 0.54298zm-0.54629-0.47842 0.07449-0.06787-0.37578-0.43372-0.14568 0.10264q-0.25824 0.17382-0.25824 0.3526 0 0.09767 0.08443 0.1672 0.08443 0.06953 0.20362 0.06953 0.0927 0 0.20858-0.05297 0.11753-0.05297 0.20858-0.1374zm-0.21355-0.89393 0.12581-0.08939q0.17548-0.12416 0.17548-0.28804 0-0.10098-0.07449-0.16885-0.07284-0.06787-0.18541-0.06787-0.10926 0-0.18044 0.06291-0.07118 0.06291-0.07118 0.15726 0 0.09105 0.05628 0.19865 0.05629 0.10595 0.15395 0.19534z" stop-color="#000000" stroke-width=".034066"/></g><g transform="scale(.9249 1.0812)" stroke-width=".034066" aria-label="t"><path d="m74.156 18.061v0.90834h-1.5393v1.7406q0 0.31322 0.17004 0.49668 0.17451 0.17898 0.47878 0.17898 0.41166 0 0.89044-0.2461v0.96204q-0.63539 0.264-1.2305 0.264-0.77858 0-1.2081-0.40271-0.42956-0.40271-0.42956-1.1813v-1.8122h-0.60407v-0.25953l1.7675-1.9778h0.16556v1.329z"/></g></g></g></g></g></svg>
